Coordinates
version=1
nRows=8
nColumns=36
inDegrees=yes

Units are S.I. units (second, meters, Newtons, ...)
If the header above contains a line with 'inDegrees', this indicates whether rotational values are in degrees (yes) or radians (no).

endheader
time	pelvis_tilt	pelvis_list	pelvis_rotation	pelvis_tx	pelvis_ty	pelvis_tz	hip_flexion_r	hip_adduction_r	hip_rotation_r	knee_angle_r	knee_angle_r_beta	ankle_angle_r	subtalar_angle_r	mtp_angle_r	hip_flexion_l	hip_adduction_l	hip_rotation_l	knee_angle_l	knee_angle_l_beta	ankle_angle_l	subtalar_angle_l	mtp_angle_l	lumbar_extension	lumbar_bending	lumbar_rotation	arm_flex_r	arm_add_r	arm_rot_r	elbow_flex_r	pro_sup_r	arm_flex_l	arm_add_l	arm_rot_l	elbow_flex_l	pro_sup_l
      1.56000000	    -23.28748169	     -5.85389919	      2.94234132	     -0.29208066	      0.73841927	     -0.64291916	     81.41403384	     -3.43952086	     -2.56505413	     91.12866266	      1.59049521	     28.82498116	    -13.53416403	     -7.45701269	     84.43127693	     -6.57064206	      4.16251981	     93.90227366	      1.63890385	     29.27219987	     -4.69570100	     -7.45701269	    -35.27363785	      3.65111541	      0.71230252	     65.44968780	    -25.94163785	     14.50948973	     88.11898856	    115.13988874	     90.30701396	    -11.89776936	     24.87078016	     74.60344652	    111.61064536
      1.57000000	    -22.48856952	     -5.66679546	      2.59638259	     -0.28656262	      0.74844698	     -0.64229470	     79.55096129	     -2.54110879	     -2.07676623	     90.02546104	      1.57124071	     27.88196148	    -14.18706206	     -7.45794064	     82.35348838	     -7.06290541	      3.75441775	     92.90115074	      1.62143096	     28.76843890	     -5.02999945	     -7.45794064	    -33.96484897	      3.24993102	      0.25005029	     72.24870411	    -26.25427682	     17.03157286	     90.35524059	    115.14710423	     95.87192648	    -11.54579265	     27.83071005	     76.77156202	    111.80491083
      1.58000000	    -21.91324582	     -5.41075482	      2.52467946	     -0.28116855	      0.75922356	     -0.64254217	     77.81534688	     -2.05591676	     -1.50759231	     88.77423375	      1.54940267	     26.83884417	    -14.60099358	     -7.45862394	     80.38117305	     -7.14595714	      3.28427176	     91.61200047	      1.59893104	     28.06499399	     -5.26899968	     -7.45862394	    -32.52819847	      2.95230577	     -0.57615778	     79.40770130	    -26.38339845	     19.56292507	     92.24110009	    115.12785734	    101.72908721	    -11.20606731	     30.69037720	     78.87262545	    111.95785409
      1.59000000	    -21.60404105	     -5.15216456	      2.95919238	     -0.27634383	      0.77076699	     -0.64465188	     76.25525965	     -2.33867512	     -1.11292631	     87.35877938	      1.52469833	     25.31558417	    -15.35717605	     -7.46006831	     78.61130518	     -6.47138464	      2.88014046	     89.93066842	      1.56958626	     26.74340095	     -6.27342158	     -7.46006831	    -30.89258761	      3.21255978	     -2.13342700	     87.40732723	    -25.68559329	     22.36862239	     92.83710599	    114.95533459	    107.75640119	    -11.53248299	     33.54679537	     80.95472314	    111.79295780
      1.60000000	    -21.40062963	     -4.95302395	      3.44621226	     -0.27131291	      0.78375710	     -0.64674930	     74.58755228	     -2.69899277	     -0.88310601	     85.61583033	      1.49427813	     24.06763936	    -15.59389852	     -7.46103072	     76.81441399	     -5.87898800	      2.43737786	     87.91074122	      1.53433188	     25.56325262	     -6.93272957	     -7.46103072	    -29.34793472	      3.44941880	     -3.42735326	     95.51962399	    -25.29444067	     25.21569827	     93.36260408	    114.87780238	    114.11299365	    -11.38540300	     36.15008185	     82.33131135	    111.64402812
      1.61000000	    -21.34295847	     -4.85750694	      3.85659286	     -0.26576586	      0.79823181	     -0.64823134	     72.84755342	     -2.86589933	     -0.75557014	     83.47904380	      1.45698417	     22.02269472	    -16.62762874	     -7.46687117	     74.98980573	     -5.47814715	      2.09291902	     85.54353874	      1.49301640	     23.95866180	     -7.66983755	     -7.46687117	    -27.73322733	      3.79597881	     -4.66521500	    103.55224010	    -24.30170260	     27.76813354	     93.32272713	    114.57974303	    120.33151331	    -11.46269523	     38.48395695	     83.67285762	    109.88960817
      1.62000000	    -21.40082299	     -4.67148421	      4.24107096	     -0.25976620	      0.81406172	     -0.64934558	     71.04252734	     -3.05731630	     -0.58744551	     81.04750841	      1.41454587	     20.33011259	    -17.03639642	     -7.47256676	     73.02423080	     -5.10335458	      1.68504516	     82.81843603	      1.44545439	     22.43208160	     -7.95668944	     -7.47256676	    -26.05784453	      3.91271697	     -5.92613903	    111.02663762	    -22.98377872	     29.27149136	     92.86737627	    114.47586659	    126.45828830	    -11.18100927	     40.43304580	     83.95387732	    109.55589489
      1.63000000	    -21.57024966	     -4.45256233	      4.73401077	     -0.25339558	      0.83123759	     -0.65083065	     69.16505775	     -3.46909153	     -0.50268051	     78.33851538	      1.36726502	     18.77122483	    -16.75351327	     -7.47274878	     70.93626208	     -4.55017308	      1.33188388	     79.68082464	      1.39069274	     20.93753323	     -7.69446926	     -7.47274878	    -24.31229311	      4.07500190	     -7.20546696	    118.20904811	    -21.33048925	     30.16783818	     91.79172921	    114.54392980	    132.14841331	    -10.64225605	     41.70692666	     83.61610702	    109.95583563
